<?xml version="1.0" encoding="UTF-8" standalone="no"?>
<!-- Created with Inkscape (http://www.inkscape.org/) -->

<svg
   version="1.1"
   id="svg2"
   width="1654.5867"
   height="1602.28"
   viewBox="0 0 1654.5867 1602.28"
   sodipodi:docname="Logo Vetor.ai"
   xmlns:inkscape="http://www.inkscape.org/namespaces/inkscape"
   xmlns:sodipodi="http://sodipodi.sourceforge.net/DTD/sodipodi-0.dtd"
   xmlns="http://www.w3.org/2000/svg"
   xmlns:svg="http://www.w3.org/2000/svg">
  <defs
     id="defs6">
    <clipPath
       clipPathUnits="userSpaceOnUse"
       id="clipPath16">
      <path
         d="M 70.16,609.537 C 70.16,317.835 306.63,81.365 598.332,81.365 v 0 c 291.7,0 528.172,236.47 528.172,528.172 v 0 c 0,291.7 -236.472,528.172 -528.172,528.172 v 0 C 306.63,1137.709 70.16,901.237 70.16,609.537"
         id="path14" />
    </clipPath>
    <clipPath
       clipPathUnits="userSpaceOnUse"
       id="clipPath260">
      <path
         d="M 0,1201.712 H 1240.941 V 0 H 0 Z"
         id="path258" />
    </clipPath>
  </defs>
  <sodipodi:namedview
     id="namedview4"
     pagecolor="#ffffff"
     bordercolor="#000000"
     borderopacity="0.25"
     inkscape:showpageshadow="2"
     inkscape:pageopacity="0.0"
     inkscape:pagecheckerboard="0"
     inkscape:deskcolor="#d1d1d1" />
  <g
     id="g8"
     inkscape:groupmode="layer"
     inkscape:label="Logo Vetor"
     transform="matrix(1.3333333,0,0,-1.3333333,0,1602.28)">
    <g
       id="g10">
      <g
         id="g12"
         clip-path="url(#clipPath16)">
        <g
           id="g18"
           transform="translate(974.8353,985.9277)">
          <path
             d="m 0,0 c -21.962,-74.668 -43.528,-149.501 -68.362,-223.297 -2.339,-6.716 -4.707,-13.396 -7.465,-20.093 -0.977,-2.407 -2.334,-5.404 -3.758,-7.656 -0.001,0 -1.385,-2.261 -1.385,-2.261 l -5.539,-9.047 c -6.808,-11.058 -26.124,-42.708 -33.236,-54.279 -3.679,-6.083 -7.564,-12.459 -12.178,-18.008 -4.577,-5.667 -9.882,-10.922 -15.459,-15.571 -21.408,-18.289 -42.278,-37.276 -62.185,-57.18 -5.085,-4.964 -9.873,-10.297 -15.037,-15.26 -2.847,-2.594 -5.968,-4.881 -9.286,-6.825 -3.212,-1.867 -6.084,-3.028 -8.994,-5.056 -5.572,-3.586 -9.889,-9.051 -14.322,-13.979 -3.729,-4.253 -8.192,-8.087 -13.008,-11.132 -1.42,-1.039 -39.253,-21.69 -42.011,-23.251 0,0 -9.293,-5.114 -9.293,-5.114 l -0.118,-0.066 c 0.099,0.032 0.301,0.184 0.368,0.245 0,0 -0.13,-0.103 -0.13,-0.103 -2.232,-1.794 -5.533,-4.425 -7.763,-6.215 -5.503,-4.398 -19.863,-15.915 -25.281,-20.216 -6.508,-6.377 -16.855,-13.315 -26.75,-15.803 -0.466,-0.135 -0.956,-0.239 -1.596,0.289 0.965,0.254 1.788,1.167 1.847,2.203 0.01,0.168 0,0.043 0.002,0.078 l -0.028,-0.055 c -1.066,-2.874 0.068,-6.066 1.147,-8.767 2.365,-5.703 7.383,-9.701 13.257,-11.362 2.92,-0.851 6.011,-1.249 9.132,-1.243 l -0.502,-6.494 c -7.073,1.022 -14.378,3.38 -19.621,8.531 -3.989,3.803 -6.46,8.918 -7.351,14.272 -0.208,0.906 -0.557,3.122 -0.778,3.998 10e-4,0 -0.158,0.698 -0.158,0.698 l -0.084,0.365 -0.046,0.195 -0.023,0.1 c 0.006,0.788 0.537,1.772 1.296,2.171 0.138,0.081 0.273,0.143 0.398,0.19 0.167,0.059 0.2,0.069 0.173,0.069 0.207,0.779 0.569,0.911 0.947,1.04 5.749,2.357 10.708,6.146 15.433,10.17 2.499,2.089 4.871,4.363 7.218,6.617 7.726,6.194 21.853,17.387 29.66,23.6 0.806,0.642 2.366,1.879 3.115,2.475 0.494,0.398 1.01,0.815 1.566,1.13 5.963,3.267 39.99,21.813 46.73,25.499 5.95,3.09 11.043,6.921 15.473,11.946 2.186,2.446 4.94,5.541 7.216,7.989 4.013,4.176 8.708,7.694 13.843,10.369 4.661,2.266 8.552,4.64 12.312,8.061 14.832,15.071 29.979,30.101 45.7,44.259 10.507,9.554 21.224,18.864 32.101,27.993 5.321,4.371 10.145,9.07 14.507,14.372 4.476,5.317 7.987,11.049 11.679,17.027 10.729,17.255 30.025,48.168 40.666,65.274 4.637,8.224 7.302,17.339 10.668,26.24 25.312,73.482 47.385,148.058 69.851,222.465 C -5.442,1.597 0,0 0,0"
             style="fill:#9679fa;fill-opacity:1;fill-rule:nonzero;stroke:none"
             id="path20" />
        </g>
        <g
           id="g22"
           transform="translate(618.0035,471.9759)">
          <path
             d="m 0,0 c -10.698,-2.107 -21.581,-5.722 -30.436,-12.252 -2.927,-2.205 -5.535,-4.841 -7.479,-7.957 l -1.443,0.777 c 3.457,7.117 9.84,12.332 16.463,16.379 6.758,4.057 13.911,7.14 21.48,9.411 C -1.415,6.358 0,0 0,0"
             style="fill:#9679fa;fill-opacity:1;fill-rule:nonzero;stroke:none"
             id="path24" />
        </g>
        <g
           id="g26"
           transform="translate(592.5447,455.4027)">
          <path
             d="m 0,0 c -4.743,0.082 -13.532,-1.914 -12.209,-8.188 0.714,-2.678 2.776,-5.354 5.193,-6.89 4.413,-2.728 9.89,-3.136 14.984,-2.641 2.002,0.21 4.232,0.586 6.088,1.209 0,0 1.134,-6.414 1.134,-6.414 C 4.903,-23.02 -7.971,-22.278 -13.814,-12.445 -20.062,-2.288 -9.318,3.595 -1.03,6.431 -1.03,6.431 0,0 0,0"
             style="fill:#9679fa;fill-opacity:1;fill-rule:nonzero;stroke:none"
             id="path28" />
        </g>
        <g
           id="g30"
           transform="translate(485.6279,82.555)">
          <path
             d="m 0,0 c 0.32,0.727 0.978,1.685 1.401,2.377 6.003,9.26 12.414,18.319 18.912,27.223 20.915,28.459 43.35,55.794 68.55,80.646 16.959,16.517 35.018,32.14 55.83,43.776 6.529,3.619 13.444,6.795 20.579,9.156 9.32,3.114 19.733,6.402 28.704,10.229 5.264,2.23 10.274,4.865 15.059,7.922 l 3.512,-5.486 c -10.074,-6.523 -21.47,-10.834 -32.729,-14.593 -3.023,-1.035 -9.673,-3.197 -12.535,-4.154 C 149.538,151.163 133.837,140.592 119.222,128.97 76.486,93.813 41.648,49.806 10.288,4.435 9.567,3.339 6.901,-0.641 6.143,-1.899 c 0,0 -0.259,-0.423 -0.259,-0.423 l -0.113,-0.19 c -0.036,-0.06 0.01,0.014 0.017,0.034 0.015,0.031 0.027,0.063 0.036,0.097 z"
             style="fill:#ff6abc;fill-opacity:1;fill-rule:nonzero;stroke:none"
             id="path32" />
        </g>
        <g
           id="g34"
           transform="translate(813.3271,513.3551)">
          <path
             d="m 0,0 c 10.473,-5.199 25.447,-0.728 36.116,2.307 4.75,1.331 10.146,2.226 15.05,2.895 11.106,1.517 22.457,0.779 33.489,2.068 0.408,0.048 1.152,0.196 1.538,0.32 0.387,0.091 0.936,0.232 1.258,0.416 10.667,5.23 23.646,2.044 33.857,-2.68 4.049,-1.906 7.968,-4.553 11.681,-7.052 19.22,-11.798 39.439,-22.376 59.623,-32.441 1.617,-0.826 3.184,-1.862 4.601,-2.942 4.71,-3.564 8.962,-7.721 12.989,-11.772 1.802,-1.798 3.452,-3.745 4.78,-5.975 1.331,-2.226 2.46,-4.634 2.949,-7.577 l -0.622,-0.555 c -5.308,1.518 -9.264,4.515 -12.987,8.178 -3.534,3.4 -7.164,6.717 -10.882,9.592 -1.258,0.918 -2.758,2.04 -4.102,2.738 -7.352,3.518 -14.576,7.029 -21.746,10.829 -13.42,7.118 -26.683,14.323 -39.318,22.845 -3.829,2.733 -7.847,5.682 -12.139,7.621 C 108.296,2.4 98.264,5.273 90.125,1.527 89.411,1.241 88.553,0.969 87.807,0.841 c 0,0 -1.109,-0.238 -1.109,-0.238 L 85.659,0.475 C 74.296,-0.536 62.987,0.734 51.683,-0.233 47.628,-0.491 42.9,-1.003 38.901,-1.676 37.086,-2 31.477,-3.095 29.7,-3.423 20.328,-4.839 7.999,-5.909 0,0"
             style="fill:#ff6abc;fill-opacity:1;fill-rule:nonzero;stroke:none"
             id="path36" />
        </g>
        <g
           id="g38"
           transform="translate(1026.481,454.8902)">
          <path
             d="m 0,0 c -1.398,0 -2.819,0.226 -4.236,0.754 l 2.273,6.103 c 4.677,-1.741 11.009,3.524 13.056,5.7 l 4.756,-4.45 C 15.49,7.723 8.168,0 0,0"
             style="fill:#ff6abc;fill-opacity:1;fill-rule:nonzero;stroke:none"
             id="path40" />
        </g>
        <g
           id="g42"
           transform="translate(1012.8822,409.487)">
          <path
             d="m 0,0 c -13.411,12.732 -31.321,17.358 -48.669,23.249 -8.956,3.033 -17.999,6.57 -26.625,11.182 -3.933,2.121 -8.159,4.626 -12.174,6.528 -7.441,3.553 -16.159,7.123 -24.182,6.726 -2.386,-0.17 -4.8,-0.304 -7.242,-0.355 -9.155,0.044 -18.477,-0.054 -27.613,-0.998 -6.94,-0.616 -13.682,-2.314 -20.587,-3.32 -14.316,-1.809 -29.074,-0.3 -42.573,4.731 13.977,-1.142 27.749,-0.569 41.2,2.658 9.125,2.559 18.428,5.276 27.93,6.031 5.865,0.635 11.987,0.973 17.949,0.988 4.093,0.014 8.105,0.485 12.231,0.669 4.63,0.073 9.306,-0.842 13.659,-2.13 7.254,-2.163 13.829,-5.276 20.328,-8.881 5.887,-3.409 11.961,-6.697 18.243,-9.401 12.969,-5.628 26.223,-9.434 39.229,-15.736 5.511,-2.583 10.834,-5.955 15.649,-9.699 1.348,-1.222 4.23,-3.627 5.457,-5.063 0,0 2.533,-2.715 2.533,-2.715 z"
             style="fill:#ff6abc;fill-opacity:1;fill-rule:nonzero;stroke:none"
             id="path44" />
        </g>
        <g
           id="g46"
           transform="translate(785.2359,400.1117)">
          <path
             d="m 0,0 c 3.335,2.35 7.136,2.16 10.906,2.73 3.683,0.491 7.353,1.078 11.029,1.617 18.053,2.812 39.677,5.938 57.663,9.257 3.015,0.743 6.271,0.68 9.243,0.489 8.77,-0.649 19.262,-3.899 25.903,-6.508 20.94,-1.933 41.438,-7.496 61.334,-14.107 0,0 -0.641,0.108 -0.641,0.108 3.818,-0.46 7.405,-1.112 11.042,-1.95 10.71,-2.523 21.673,-6.152 30.22,-13.294 -12.946,6.28 -27.646,8.117 -41.825,8.859 -7.428,1.537 -14.8,3.256 -22.181,4.839 -13.122,2.827 -26.16,5.534 -39.49,7.158 -0.485,0.091 -1.01,0.247 -1.466,0.436 C 104.146,2.701 96.029,5.459 88.143,6.361 85.916,6.564 83.811,6.714 81.708,6.4 69.439,4.345 56.951,3.571 44.601,2.444 37.118,1.823 18.564,0.385 11.243,-0.249 7.436,-0.534 3.78,-1.56 0,0"
             style="fill:#ff6abc;fill-opacity:1;fill-rule:nonzero;stroke:none"
             id="path48" />
        </g>
        <g
           id="g50"
           transform="translate(1000.8549,348.3284)">
          <path
             d="m 0,0 c -27.134,-2.701 -54.498,-2.025 -81.555,1.11 0,0 0.188,1.8 0.188,1.8 20.15,-1.21 40.462,-0.874 60.557,0.997 6.691,0.588 13.33,1.529 19.935,2.547 z"
             style="fill:#ff6abc;fill-opacity:1;fill-rule:nonzero;stroke:none"
             id="path52" />
        </g>
        <g
           id="g54"
           transform="translate(1023.9659,502.1559)">
          <path
             d="m 0,0 c 14.935,-0.639 38.959,-14.09 43.724,-29.006 1.6,-6.061 -1.618,-9.752 -6.809,-12.332 -7.201,-3.189 -15.447,-1.607 -22.271,1.765 0,0 -0.422,0.218 -0.422,0.218 -1.341,1.388 -2.724,2.73 -4.023,4.149 C 1.893,-25.867 -3.607,-12.422 0,0 m 0,0 c -0.378,-13.803 7.642,-26.201 17.941,-34.72 0,0 -0.618,0.42 -0.618,0.42 5.967,-2.498 14.153,-3.947 19.381,0.504 3.097,2.26 -1.75,8.698 -3.583,10.963 C 24.422,-12.724 12.826,-4.483 0,0"
             style="fill:#ff6abc;fill-opacity:1;fill-rule:nonzero;stroke:none"
             id="path56" />
        </g>
        <g
           id="g58"
           transform="translate(1027.1733,421.6603)">
          <path
             d="m 0,0 c -0.931,-2.75 -0.126,-5.939 2.005,-7.904 5.451,-5.614 11.677,-10.678 18.848,-13.872 0.611,-0.269 1.31,-0.54 1.824,-0.689 l -0.724,0.102 c 7.28,1.43 8.242,10.64 8.413,16.796 0,0.001 0.216,-1.159 0.216,-1.159 -5.938,13.495 -14.914,26.33 -27.368,34.515 -10e-4,0 1.614,1.991 1.614,1.991 C 5.712,28.376 5.914,26.947 5.99,25.619 5.971,16.815 2.562,8.304 0,0 m 0,0 c 2.103,6.58 6.78,22.31 2.72,28.189 0,0 -4.087,4.4 -4.087,4.4 L 4.335,30.18 c 14.918,-6.479 26.539,-19.409 32.08,-34.616 0,0 0.235,-0.6 0.235,-0.6 l -0.018,-0.56 c -0.375,-8.638 -4.567,-20.379 -14.907,-20.187 -5.423,2.766 -9.8,7.066 -14.049,11.298 -2.014,2.092 -3.963,4.23 -5.85,6.418 C -0.219,-5.972 -0.964,-2.735 0,0"
             style="fill:#ff6abc;fill-opacity:1;fill-rule:nonzero;stroke:none"
             id="path60" />
        </g>
        <g
           id="g62"
           transform="translate(1021.2668,384.8788)">
          <path
             d="m 0,0 c -2.678,8.988 -6.621,20.819 -9.492,29.799 1.735,-0.291 5.192,-0.766 6.903,-1.045 0.874,-0.072 2.178,-0.423 3.041,-0.652 14.04,-3.644 25.661,-13.78 33.603,-25.645 0,0 0.287,-0.449 0.287,-0.449 l 0.082,-0.37 c 1.904,-6.682 -1.001,-13.379 -6.884,-16.901 -1.938,-1.255 -3.938,-2.116 -6.21,-2.761 l -0.54,0.161 c -4.879,1.612 -8.165,4.665 -11.743,7.894 C 5.77,-6.877 2.734,-3.571 0,0 m 0,0 c 3.58,-2.684 7.155,-5.319 10.807,-7.749 3.36,-2.133 7.303,-4.776 11.038,-5.543 0,0 -1.254,-0.055 -1.254,-0.055 0.586,0.256 1.372,0.657 2.022,1.059 4.516,2.555 7.572,6.97 5.798,12.199 10e-4,0 0.37,-0.818 0.37,-0.818 -2.086,2.977 -4.569,5.861 -7.1,8.501 -7.662,7.958 -17.143,14.514 -28.044,16.867 0,0 2.673,3 2.673,3 C -1.878,18.402 -0.199,9.26 0,0"
             style="fill:#ff6abc;fill-opacity:1;fill-rule:nonzero;stroke:none"
             id="path64" />
        </g>
        <g
           id="g66"
           transform="translate(1026.0015,364.3907)">
          <path
             d="m 0,0 c -2.043,0 -3.559,0.178 -3.979,0.233 l 0.845,6.459 C -0.757,6.387 6.657,6.191 9.47,9.184 L 14.216,4.723 C 10.466,0.734 4.146,0 0,0"
             style="fill:#ff6abc;fill-opacity:1;fill-rule:nonzero;stroke:none"
             id="path68" />
        </g>
        <g
           id="g70"
           transform="translate(988.5788,381.4009)">
          <path
             d="m 0,0 c -3.573,-7.259 -6.178,-14.641 -5.364,-22.509 0,0 0.011,-0.102 0.011,-0.102 0.003,-0.031 0.008,-0.089 0.01,-0.04 0.03,0.496 -0.263,0.993 -0.722,1.208 -0.019,0.02 -0.165,0.06 -0.026,0.029 l 0.476,-0.093 c 10.732,-2.022 21.201,-5.328 31.556,-8.746 0.148,-0.001 0.02,-0.105 0.683,0.214 2.325,0.959 4.423,2.57 5.495,4.892 1.336,3.03 1.015,6.372 0.102,9.675 -0.583,2.244 -1.514,3.811 -3.416,4.984 -0.855,0.502 -2.409,1.079 -3.327,1.495 C 17.169,-5.542 8.717,-2.298 0,0 m 0,0 c 7.724,-0.906 15.338,-2.761 22.828,-4.861 1.221,-0.361 4.43,-1.295 5.608,-1.67 2.215,-0.584 4.262,-1.757 5.756,-3.539 4.555,-6.227 5.647,-16.232 -0.129,-22.171 -1.761,-1.748 -3.553,-3.031 -5.837,-4.068 -1.517,-0.606 -3.252,-0.555 -4.788,-0.131 -9.448,2.061 -18.961,4.121 -28.118,7.27 -0.54,0.193 -2.22,0.733 -2.758,0.925 -2.21,0.566 -4.038,2.25 -4.367,4.56 -0.103,0.488 -0.045,1.041 -0.028,1.525 C -11.287,-13.565 -6.427,-5.302 0,0"
             style="fill:#ff6abc;fill-opacity:1;fill-rule:nonzero;stroke:none"
             id="path72" />
        </g>
        <g
           id="g74"
           transform="translate(907.3137,458.2632)">
          <path
             d="m 0,0 c 0.023,0.025 0.044,0.052 0.062,0.08 0,0 -0.018,-0.012 -0.026,-0.017 -0.413,-0.287 -0.755,-0.885 -1.023,-1.317 -3.151,-7.064 0.652,-15.507 3.858,-22.02 10e-4,0 1.93,-3.505 1.93,-3.505 -6.262,7.29 -13.102,16.095 -11.601,26.372 0.445,1.938 0.914,3.505 2.295,5.111 C -4.505,4.704 0,0 0,0"
             style="fill:#ff6abc;fill-opacity:1;fill-rule:nonzero;stroke:none"
             id="path76" />
        </g>
        <g
           id="g78"
           transform="translate(908.6184,518.5842)">
          <path
             d="m 0,0 c -2.534,-8.887 0.452,-18.661 5.997,-25.866 0.99,-1.187 2.352,-2.966 3.496,-3.992 1.783,-1.907 4.022,-3.69 6.043,-5.343 -6.422,3.55 -12.344,8.262 -16.453,14.41 C -5.11,-14.29 -7.496,-6.126 -6.295,1.674 -6.295,1.674 0,0 0,0"
             style="fill:#ff6abc;fill-opacity:1;fill-rule:nonzero;stroke:none"
             id="path80" />
        </g>
        <g
           id="g82"
           transform="translate(900.3676,556.1454)">
          <path
             d="m 0,0 c 0.991,-6.266 3.575,-12.282 6.781,-17.765 1.105,-1.903 2.363,-3.721 3.673,-5.526 -5.25,4.327 -9.855,9.454 -13.452,15.274 -1.273,2.084 -2.408,4.096 -3.315,6.415 C -6.313,-1.602 0,0 0,0"
             style="fill:#ff6abc;fill-opacity:1;fill-rule:nonzero;stroke:none"
             id="path84" />
        </g>
        <g
           id="g86"
           transform="translate(685.2889,268.5379)">
          <path
             d="m 0,0 c 19.803,-8.785 38.802,-19.431 56.351,-32.169 1.215,-0.92 4.356,-3.292 5.521,-4.178 21.806,-17.039 35.594,8.002 44.488,25.542 1.473,2.687 2.879,6.14 4.963,8.539 0.001,0 2.978,-2.83 2.978,-2.83 -1.106,-1.806 -2.647,-5.708 -3.54,-7.768 -9.868,-24.38 -27.744,-49.262 -54.687,-27.233 -5.889,4.716 -12.179,9.137 -18.391,13.406 C 25.079,-18.223 11.901,-10.087 -1.181,-2.359 -1.181,-2.359 0,0 0,0"
             style="fill:#9679fa;fill-opacity:1;fill-rule:nonzero;stroke:none"
             id="path88" />
        </g>
        <g
           id="g90"
           transform="translate(664.2169,287.5947)">
          <path
             d="m 0,0 c 0.543,7.626 3.828,14.968 9.996,19.808 6.098,4.878 15.038,6.279 22.016,2.579 C 28.34,21.424 25.051,20.644 22.079,19.372 15.996,16.905 11.415,12.924 7.068,7.988 4.721,5.479 2.597,2.338 0,0"
             style="fill:#9679fa;fill-opacity:1;fill-rule:nonzero;stroke:none"
             id="path92" />
        </g>
        <g
           id="g94"
           transform="translate(660.684,287.7697)">
          <path
             d="M 0,0 C 1.479,-0.945 3.287,0.752 2.459,2.282 2.486,2.225 2.624,1.988 2.657,1.923 c 0.33,-0.575 1.234,-2.265 1.569,-2.875 3.473,-6.128 7.508,-12.564 13.759,-16.097 7.08,-4.29 15.078,-1.102 19.843,5.107 0.087,0.11 0.017,0.023 0.01,0 -0.045,-0.081 -0.052,-0.181 -0.039,-0.28 0.012,-0.057 -0.008,0.014 -0.018,0.045 l -0.036,0.111 c -0.405,1.594 -1.325,2.947 -2.391,4.284 -2.776,3.209 -6.389,5.807 -10.036,7.933 -0.001,0 1.557,0.076 1.557,0.076 C 19.168,-5.917 8.046,-5.07 0,0 M 2.115,3.395 C 8.979,-1 18.178,-1.946 25.196,2.634 c 10e-4,-10e-4 0.878,0.504 0.878,0.504 0,0 0.68,-0.429 0.68,-0.429 2.682,-1.588 5.121,-3.355 7.451,-5.392 2.553,-2.324 5.318,-5.196 6.248,-8.891 0.224,-0.636 -0.039,-1.588 -0.462,-2.047 -1.475,-1.867 -3.188,-3.486 -5.136,-4.859 -14.69,-10.419 -28.254,5.53 -35.138,17.514 0,0 -0.562,0.988 -0.562,0.988 L -0.986,0.269 C -2.253,2.288 0.127,4.65 2.115,3.395"
             style="fill:#9679fa;fill-opacity:1;fill-rule:nonzero;stroke:none"
             id="path96" />
        </g>
        <g
           id="g98"
           transform="translate(685.5992,322.4381)">
          <path
             d="M 0,0 C -0.535,0.102 -0.843,0.704 -1.054,1.163 -2.256,4.618 -1.356,8.423 -0.04,11.714 4.763,23.573 19.75,29.127 30.902,22.736 27.016,21.999 23.484,21.399 20.237,20.334 12.117,17.822 5.726,12.223 1.506,4.897 0.872,3.756 0.237,2.558 -0.082,1.281 -0.174,0.856 -0.277,0.411 0,0"
             style="fill:#9679fa;fill-opacity:1;fill-rule:nonzero;stroke:none"
             id="path100" />
        </g>
        <g
           id="g102"
           transform="translate(722.2645,355.2426)">
          <path
             d="m 0,0 c -2.036,6.388 1.991,14.254 8.311,17.055 6.072,2.972 13.377,2.538 19.49,0.71 4.041,-1.226 7.832,-3.026 11.219,-5.577 -7.926,-0.04 -15.676,1.307 -23.245,0.343 C 8.107,11.745 2.801,7.535 0,0"
             style="fill:#9679fa;fill-opacity:1;fill-rule:nonzero;stroke:none"
             id="path104" />
        </g>
        <g
           id="g106"
           transform="translate(711.632,309.0374)">
          <path
             d="m 0,0 c 3.088,0.798 6.462,1.859 9.322,3.243 2.791,1.347 5.555,2.943 7.588,5.284 0,0 -0.082,-0.125 -0.082,-0.125 -0.065,-0.067 -0.047,-0.141 -0.056,-0.015 -0.289,0.846 -0.983,1.625 -1.702,2.378 -3.592,3.537 -8.128,6.344 -12.463,8.926 0,0 2.477,0.369 2.477,0.369 -9.483,-8.599 -23.532,-9.03 -35.578,-7.812 0,0.001 -0.145,0.018 -0.145,0.018 -0.071,0.009 0.067,-0.012 0.136,-0.007 0.082,0 0.173,0.01 0.261,0.031 0.938,0.178 1.242,1.421 0.599,2.038 0.018,-0.018 0.47,-0.475 0.511,-0.517 C -25.29,9.825 -21.054,6.01 -16.272,3.235 -11.364,0.381 -5.574,-1.312 0,0 m 0.781,-3.248 c -6.449,-1.485 -13.155,0.462 -18.654,3.743 -4.07,2.423 -7.641,5.445 -11.015,8.703 -0.76,0.762 -2.183,2.171 -2.93,2.938 -1.337,1.314 -0.112,3.551 1.702,3.179 10.54,-1.03 24.739,-1.083 32.263,7.459 0,10e-4 1.123,1.192 1.123,1.192 1.988,-1.198 4.014,-2.459 5.903,-3.76 C 12.748,17.535 24.674,10.18 18.782,5.239 13.83,0.65 7.213,-1.659 0.781,-3.248"
             style="fill:#9679fa;fill-opacity:1;fill-rule:nonzero;stroke:none"
             id="path108" />
        </g>
        <g
           id="g110"
           transform="translate(714.6863,357.5645)">
          <path
             d="m 0,0 c -0.229,0.104 -0.679,0.111 -0.85,-0.06 0.003,-0.006 0.002,0.001 0.005,-0.014 l 0.031,-0.205 c 1.038,-6.818 6.13,-12.159 11.31,-16.33 1.933,-1.528 3.996,-2.977 6.078,-4.182 l -0.345,0.141 c 8.06,-1.621 16.533,-0.95 23.725,2.984 2.243,1.231 4.46,2.795 6.335,4.483 0,-0.002 -0.499,-1.414 -0.498,-1.415 0.049,-0.361 0.091,-0.248 0.013,-0.145 -0.066,0.119 -0.188,0.288 -0.325,0.457 -4.12,4.337 -9.416,7.543 -14.342,10.937 -0.94,0.613 -3.325,2.166 -4.242,2.742 -0.237,0.181 -0.455,0.136 -0.664,-0.008 C 18.321,-6.029 8.01,-4.124 0,0 m 0.3,0.614 c 7.607,-3.412 17.551,-4.563 24.565,0.699 0.907,0.743 2.338,0.821 3.297,0.213 3.382,-1.901 6.986,-3.981 10.27,-6.036 2.923,-1.848 5.847,-3.701 8.531,-5.959 1.206,-1.174 2.417,-1.928 2.718,-3.908 0,-0.003 0.071,-0.764 0.072,-0.766 l -0.571,-0.651 c -8.541,-8.811 -22.364,-10.286 -33.724,-7.122 -7.418,5.278 -15.175,12.27 -16.926,21.591 0,0 -0.107,0.964 -0.107,0.964 -0.008,0.09 -0.02,0.137 -0.023,0.264 0.045,0.94 1.227,1.037 1.898,0.711"
             style="fill:#9679fa;fill-opacity:1;fill-rule:nonzero;stroke:none"
             id="path112" />
        </g>
        <g
           id="g114"
           transform="translate(737.225,334.7215)">
          <path
             d="m 0,0 c 13.715,-9.058 26.982,-18.596 40.526,-27.808 11.739,-7.957 28.758,-19.173 40.674,-27.196 -2.051,0.381 -4.084,0.879 -6.123,1.406 C 61.099,-49.41 48.638,-41.345 36.99,-32.799 23.707,-22.984 11.155,-12.202 0,0"
             style="fill:#9679fa;fill-opacity:1;fill-rule:nonzero;stroke:none"
             id="path116" />
        </g>
        <g
           id="g118"
           transform="translate(762.674,365.9308)">
          <path
             d="m 0,0 c -1.352,1.078 -0.629,2.484 0.761,3.106 0.798,0.493 2.389,1.436 3.219,1.868 6.595,3.551 13.711,6.014 21.095,7.425 1.125,0.14 2.243,0.611 3.384,0.121 6.104,-2.605 11.538,-6.498 16.713,-10.585 1.426,-1.122 2.946,-2.423 4.326,-3.614 l 0.71,-0.621 c 1.262,-1.062 1.577,-3.113 0.632,-4.496 -3.608,-4.939 -8.728,-8.623 -14.32,-10.986 -0.637,-0.258 -1.551,-0.339 -2.256,-0.379 C 22.134,-18.51 8.703,-7.645 0,0 m 0,0 c 8.677,-6.685 22.76,-16.536 34.023,-15.495 0.361,0.043 1.024,0.153 1.274,0.241 4.742,2.261 9.558,6.454 12.117,10.496 -0.067,-0.156 -0.019,-0.345 0.104,-0.456 0.018,-0.023 0.051,-0.044 -0.033,0.036 -0.387,0.396 -1.526,1.515 -1.945,1.916 C 40.058,1.905 34.243,6.935 27.495,10.357 21.994,10.116 16.455,8.664 11.157,6.988 8.267,6.043 5.406,4.82 2.66,3.497 2.237,3.232 0.658,2.491 0.234,2.216 -0.439,1.76 -0.635,0.652 0,0"
             style="fill:#9679fa;fill-opacity:1;fill-rule:nonzero;stroke:none"
             id="path120" />
        </g>
        <g
           id="g122"
           transform="translate(790.0774,349.9334)">
          <path
             d="m 0,0 c 17.181,-10.211 33.443,-22.021 50.217,-32.763 8.838,-5.263 19.333,-11.312 28.355,-16.327 1.163,-0.579 1.899,-1.009 2.12,-2.648 -0.784,-0.581 -1.395,-0.707 -1.936,-0.689 -7.219,2.239 -14.353,5.046 -21.24,8.224 -7.383,3.396 -14.3,7.985 -20.737,12.945 -6.451,4.833 -12.708,9.87 -18.897,14.999 -6.156,5.171 -12.248,10.417 -18.104,15.967 z"
             style="fill:#9679fa;fill-opacity:1;fill-rule:nonzero;stroke:none"
             id="path124" />
        </g>
        <g
           id="g126"
           transform="translate(700.5465,308.0759)">
          <path
             d="m 0,0 c 8.372,-1.742 16.407,-5.02 23.823,-9.23 3.573,-2.328 6.714,-5.249 10.402,-7.41 8.267,-5.339 16.315,-11.174 24.31,-16.861 4.589,-3.211 9.197,-6.402 13.929,-9.138 4.381,-2.398 9.015,-5.084 14.009,-3.755 9.575,2.833 16.745,13.329 21.649,21.579 -0.001,0 1.305,2.36 1.305,2.36 5.854,-1.977 11.979,-3.506 18.092,-3.841 14.888,-0.893 31.978,4.439 40.056,17.659 0,0 0.98,1.759 0.98,1.759 l 1.722,-0.078 c 3.809,-0.173 9.694,-0.465 13.42,-0.557 22.287,-0.551 43.525,10.48 57.97,27.202 4.44,5.042 8.14,10.722 11.443,16.581 1.22,1.84 2.032,4.213 3.977,5.397 -0.997,-0.549 -1.516,-1.642 -2.087,-2.583 -1.614,-2.972 -3.028,-6.044 -4.695,-8.996 -15.004,-27 -42.127,-44.046 -73.376,-42.84 0,-10e-4 -6.761,-0.052 -6.761,-0.052 l 2.702,1.681 c -7.982,-16.66 -28.434,-23.701 -45.862,-22.139 -5.865,0.504 -11.59,1.844 -17.065,3.747 l 3.928,1.522 c -1.555,-2.649 -3.161,-4.983 -4.93,-7.345 -6.386,-8.099 -14.964,-17.268 -26.252,-16.628 -4.725,0.513 -8.842,2.95 -12.658,5.276 C 53.373,-36.068 39.254,-21.802 21.423,-13.278 16.284,-10.124 5.208,-3.158 0,0"
             style="fill:#9679fa;fill-opacity:1;fill-rule:nonzero;stroke:none"
             id="path128" />
        </g>
        <g
           id="g130"
           transform="translate(771.0124,372.4834)">
          <path
             d="m 0,0 c 0.539,4.764 3.589,9.296 7.797,11.716 2.239,1.016 4.781,1.072 7.1,1.762 11.616,2.212 23.24,-2.376 33.392,-7.55 0,0 -1.723,0.364 -1.723,0.364 0.796,0.099 1.377,0.14 2.05,0.181 9.55,0.473 19.116,-1.842 27.67,-6.033 1.65,-0.816 3.404,-1.819 4.986,-2.775 2.197,-1.297 4.59,-1.919 7.321,-2.503 18.745,-3.273 39.407,-2.769 56.489,-12.881 4.315,-2.54 8.524,-5.88 10.142,-10.839 -4.383,2.293 -7.858,5.001 -12.161,7.152 -12.824,6.175 -27.035,6.655 -41.209,7.865 -8.041,0.843 -16.828,1.005 -24.28,5.155 -1.422,0.858 -2.995,1.724 -4.466,2.465 -8.001,3.993 -16.957,6.583 -25.935,6.567 0,0 -1.101,-0.031 -1.101,-0.031 L 45.449,1.011 C 36.55,6.546 26.24,11.871 15.507,10.271 13.406,10.12 11.686,8.728 10.054,7.59 6.262,5.706 3.053,3.208 0,0"
             style="fill:#9679fa;fill-opacity:1;fill-rule:nonzero;stroke:none"
             id="path132" />
        </g>
        <g
           id="g134"
           transform="translate(1102.0718,798.4668)">
          <path
             d="M 0,0 C -0.119,-0.869 -0.216,-0.962 -0.361,-1.361 -0.55,-1.8 -0.917,-2.53 -1.136,-2.964 -1.612,-3.896 -3.06,-6.615 -3.582,-7.585 -33.546,-61.64 -64.759,-115.174 -99.817,-166.117 c -5.321,-7.502 -10.758,-14.933 -16.741,-22.072 l 0.552,3.202 c 1.51,-5.83 -0.571,-11.777 -2.676,-17.116 -1.225,-2.865 -2.759,-5.799 -4.317,-8.498 10e-4,0 0.426,2.025 0.426,2.025 1.563,-14.791 2.579,-29.539 2.276,-44.421 -0.141,-4.982 -0.414,-9.98 -1.158,-15.044 l -6.439,0.985 c 1.326,9.405 1.271,19.156 0.971,28.707 -0.356,10.017 -1.125,20.125 -2.237,30.074 l 0.544,0.97 c 0.735,1.266 2.105,3.812 2.746,5.123 2.107,4.6 4.262,9.681 3.769,14.788 -0.012,0.091 -0.093,0.383 -0.02,0.165 l 0.552,3.202 c 22.4,28.62 41.017,60.159 59.888,91.207 17.548,29.276 34.78,59.036 51.308,88.919 l 1.612,2.983 0.777,1.473 0.357,0.704 0.148,0.303 0.038,0.084 -0.031,-0.082 C -7.428,1.699 -7.651,1.082 -7.66,0.689 Z"
             style="fill:#9679fa;fill-opacity:1;fill-rule:nonzero;stroke:none"
             id="path136" />
        </g>
        <g
           id="g138"
           transform="translate(941.7509,591.6777)">
          <path
             d="m 0,0 c 11.419,4.274 24.486,5.417 36.023,0.722 0,0 -3.019,-5.772 -3.019,-5.772 -4.629,2.96 -10.041,4.784 -15.58,5.487 C 11.678,1.189 5.744,1.072 0,0"
             style="fill:#9679fa;fill-opacity:1;fill-rule:nonzero;stroke:none"
             id="path140" />
        </g>
        <g
           id="g142"
           transform="translate(980.7096,610.0516)">
          <path
             d="m 0,0 c -9.421,9.879 -22.897,16.647 -36.731,16.4 -1.763,0.08 -4.316,-0.331 -6.086,-0.47 1.037,0.251 3.499,0.828 4.492,1.065 0.98,0.176 3.576,0.461 4.609,0.603 11.62,0.827 23.23,-2.858 32.98,-9.102 C 1.159,7.277 2.82,6.123 4.597,4.614 4.597,4.614 0,0 0,0"
             style="fill:#9679fa;fill-opacity:1;fill-rule:nonzero;stroke:none"
             id="path144" />
        </g>
        <g
           id="g146"
           transform="translate(858.1324,551.5723)">
          <path
             d="M 0,0 C 1.808,22.704 1.345,45.845 -2.639,68.335 -1.13,62.79 0.262,57.188 1.325,51.516 4.579,34.403 6.282,17.128 6.505,-0.328 6.505,-0.328 0,0 0,0"
             style="fill:#9679fa;fill-opacity:1;fill-rule:nonzero;stroke:none"
             id="path148" />
        </g>
        <g
           id="g150"
           transform="translate(842.3459,549.3792)">
          <path
             d="M 0,0 C -2.442,19.946 -2.513,40.08 -2.661,60.157 -0.248,50.364 1.46,40.433 3.046,30.491 4.606,20.568 5.985,10.623 6.487,0.587 6.487,0.587 0,0 0,0"
             style="fill:#9679fa;fill-opacity:1;fill-rule:nonzero;stroke:none"
             id="path152" />
        </g>
        <g
           id="g154"
           transform="translate(868.2273,552.7185)">
          <path
             d="M 0,0 C 0.692,23.309 8.805,62.194 29.162,75.935 26.867,73.352 24.953,70.556 23.323,67.618 15.292,52.827 12.22,35.977 9.376,19.547 8.311,12.921 7.369,6.179 6.501,-0.403 Z"
             style="fill:#9679fa;fill-opacity:1;fill-rule:nonzero;stroke:none"
             id="path156" />
        </g>
        <g
           id="g158"
           transform="translate(888.5803,555.5702)">
          <path
             d="M 0,0 C 4.35,16.187 13.236,38.593 25.191,50.442 20.208,42.566 17.113,33.722 14.199,24.923 11.688,17.268 8.583,6.182 6.299,-1.656 6.299,-1.655 0,0 0,0"
             style="fill:#9679fa;fill-opacity:1;fill-rule:nonzero;stroke:none"
             id="path160" />
        </g>
        <g
           id="g162"
           transform="translate(312.0455,150.271)">
          <path
             d="m 0,0 c 63.055,69.333 126.991,137.858 195.162,202.234 17.206,16.01 34.688,31.836 53.447,46.109 5.615,4.358 14.364,10.301 19.582,13.12 41.804,29.147 84.297,58.075 122.553,91.775 4.081,3.802 8.136,7.708 11.274,11.878 1.84,2.449 3.874,4.73 6.048,6.849 6.486,6.22 14.348,10.957 22.473,14.534 21.034,9.205 46.472,12.258 67.846,12.505 0,0 86.425,9.307 86.425,9.307 l -1.473,-0.542 c 3.998,2.49 8.673,3.641 13.384,3.228 4.61,-0.392 8.999,-2.607 12.369,-5.635 0,0 -0.784,0.517 -0.784,0.517 9.034,-3.665 18.049,-7.488 27.058,-11.211 8.985,-3.725 17.982,-7.39 27.105,-10.732 3.421,-1.183 6.95,-2.391 10.384,-3.462 6.036,-2.072 11.791,-5.06 17.046,-8.523 8.307,-5.564 15.857,-12.228 22.021,-20.066 -11.757,8.707 -23.994,16.473 -37.71,21.119 -2.102,0.76 -4.68,1.298 -6.848,1.918 -12.012,3.219 -23.605,7.697 -35.035,12.497 -9.233,3.921 -18.294,8.131 -27.214,12.762 -2.582,2.393 -5.705,4.056 -9,4.331 -3.117,0.293 -6.417,-0.519 -9.12,-2.134 0.003,0.002 -1.473,-0.542 -1.472,-0.541 -0.335,-0.021 -86.407,-9.716 -86.716,-9.702 -22.168,-0.465 -44.986,-3.347 -65.358,-12.205 -7.472,-3.34 -14.454,-7.567 -20.311,-13.21 -1.895,-1.866 -3.648,-3.854 -5.223,-5.964 -3.711,-4.951 -7.92,-8.971 -12.136,-12.949 -21.197,-19.304 -44.316,-36.328 -67.245,-53.326 -18.529,-13.552 -37.179,-26.883 -56.116,-39.884 -6.495,-3.659 -12.781,-8.094 -18.902,-12.743 -18.445,-14.119 -35.669,-29.8 -52.658,-45.696 C 155.587,153.418 112.47,108.33 69.918,62.863 48.668,40.074 27.57,17.101 6.776,-6.068 Z"
             style="fill:#ff6abc;fill-opacity:1;fill-rule:nonzero;stroke:none"
             id="path164" />
        </g>
        <g
           id="g166"
           transform="translate(851.8478,370.0547)">
          <path
             d="M 0,0 C 6.525,-4.33 18.155,-12.923 16.873,-21.673 16.185,-13.484 3.961,-8.375 -2.77,-5.895 -2.77,-5.895 0,0 0,0"
             style="fill:#9679fa;fill-opacity:1;fill-rule:nonzero;stroke:none"
             id="path168" />
        </g>
        <g
           id="g170"
           transform="translate(920.9928,555.7527)">
          <path
             d="m 0,0 c 4.355,-4.912 3.005,-14.281 1.808,-20.201 0,0 -0.362,2.309 -0.362,2.309 -0.901,4.424 -1.926,9.449 -5.206,12.696 -0.097,0.091 -0.186,0.127 -0.272,0.193 -0.034,-0.003 -0.244,0.139 -0.016,-0.1 z"
             style="fill:#ff6abc;fill-opacity:1;fill-rule:nonzero;stroke:none"
             id="path172" />
        </g>
        <g
           id="g174"
           transform="translate(930.4586,518.826)">
          <path
             d="m 0,0 c 3.786,-5.363 1.41,-14.525 -0.433,-20.277 0,0 -0.105,2.335 -0.105,2.335 -0.407,4.496 -0.871,9.604 -3.772,13.193 -0.087,0.101 -0.171,0.147 -0.249,0.222 -0.035,0.001 -0.228,0.164 -0.028,-0.097 z"
             style="fill:#ff6abc;fill-opacity:1;fill-rule:nonzero;stroke:none"
             id="path176" />
        </g>
        <g
           id="g178"
           transform="translate(925.199,458.9198)">
          <path
             d="m 0,0 c 3.786,-5.363 1.41,-14.525 -0.433,-20.277 0,0 -0.105,2.335 -0.105,2.335 -0.407,4.496 -0.871,9.604 -3.772,13.193 -0.087,0.101 -0.172,0.147 -0.249,0.222 -0.035,0 -0.228,0.164 -0.028,-0.097 z"
             style="fill:#ff6abc;fill-opacity:1;fill-rule:nonzero;stroke:none"
             id="path180" />
        </g>
        <g
           id="g182"
           transform="translate(899.9578,407.5647)">
          <path
             d="m 0,0 c 3.786,-5.363 1.41,-14.525 -0.433,-20.277 0,0 -0.105,2.335 -0.105,2.335 -0.407,4.496 -0.871,9.604 -3.772,13.193 -0.087,0.101 -0.172,0.147 -0.249,0.222 -0.035,0 -0.228,0.164 -0.028,-0.097 z"
             style="fill:#ff6abc;fill-opacity:1;fill-rule:nonzero;stroke:none"
             id="path184" />
        </g>
        <g
           id="g186"
           transform="translate(186.0078,259.8531)">
          <path
             d="m 0,0 -8.724,2.576 c 0.222,0.75 22.54,75.776 57.641,146.326 20.722,41.65 41.815,73.684 62.694,95.214 26.926,27.765 53.76,38.309 79.758,31.342 l -2.355,-8.786 C 137.002,280.609 88.575,208.168 57.107,144.942 22.345,75.099 0.219,0.743 0,0"
             style="fill:#ff6abc;fill-opacity:1;fill-rule:nonzero;stroke:none"
             id="path188" />
        </g>
        <g
           id="g190"
           transform="translate(233.7615,840.9248)">
          <path
             d="m 0,0 c -35.207,-34.805 -69.032,-71.495 -98.734,-111.164 -23.349,-31.793 -56.293,-81.177 -47.473,-122.149 1.208,-5.211 3.633,-10.021 7.108,-14.013 0.293,-0.337 2.084,-1.971 2.355,-2.277 3.298,-2.599 6.984,-4.697 11.203,-5.698 0,0 1.309,-0.376 1.309,-0.376 0.867,-0.174 3.17,-0.527 4.064,-0.698 1.604,-0.096 3.964,-0.392 5.554,-0.327 11.451,-0.046 22.561,3.045 33.392,6.759 -10.846,-5.19 -22.614,-9.437 -34.774,-10.094 -0.949,-0.025 -3.499,0.01 -4.48,-0.002 -1.706,0.189 -4.334,0.343 -5.986,0.768 -4.76,0.784 -9.384,2.945 -13.404,5.735 -0.329,0.247 -2.603,2.227 -2.989,2.549 0,0 -2.117,2.321 -2.117,2.321 -5.984,7.18 -8.755,16.458 -9.511,25.617 -4.183,56.999 48.48,121.765 83.675,163.293 20.358,23.299 41.783,45.53 64.62,66.423 C -6.188,6.666 0,0 0,0"
             style="fill:#ff6abc;fill-opacity:1;fill-rule:nonzero;stroke:none"
             id="path192" />
        </g>
        <g
           id="g194"
           transform="translate(177.3901,824.5542)">
          <path
             d="M 0,0 -2.382,3.874 0.002,0.001 C 0.001,0.001 0.001,0 0,0 m -113.778,-181.996 -9.039,1.017 c 7.254,64.48 38.933,112.338 64.231,141.131 27.392,31.177 52.755,46.94 53.821,47.596 L 0,0 c -0.36,-0.223 -25.512,-15.918 -51.96,-46.087 -24.351,-27.777 -54.842,-73.904 -61.818,-135.909"
             style="fill:#ff6abc;fill-opacity:1;fill-rule:nonzero;stroke:none"
             id="path196" />
        </g>
        <g
           id="g198"
           transform="translate(662.6674,1079.6622)">
          <path
             d="m 0,0 c -8.009,-40.281 -31.686,-76.157 -61.313,-104.045 -19.797,-18.717 -42.311,-34.179 -65.129,-48.829 -34.092,-21.752 -69.495,-41.437 -104.537,-61.45 -59.708,-31.579 -103.434,-89.341 -100.013,-159.069 1.3,-26.512 9.677,-53.134 25.935,-74.344 8.116,-10.604 18.387,-19.689 30.334,-25.913 -24.585,11.765 -42.071,35.054 -51.393,60.28 -19.337,51.648 -6.465,111.861 28.316,154.007 17.141,21.327 39.26,38.324 62.918,51.769 71.085,42.554 148.136,81.128 201.109,146.616 C -19.311,-42.598 -8.04,-22.07 0,0"
             style="fill:#ff6abc;fill-opacity:1;fill-rule:nonzero;stroke:none"
             id="path200" />
        </g>
        <g
           id="g202"
           transform="translate(636.1142,1106.7261)">
          <path
             d="m 0,0 c -9.92,-18.039 -23.7,-34.134 -38.213,-48.66 -67.114,-65.583 -160.242,-99.848 -252.656,-108.053 -51.455,-4.56 -103.704,-1.704 -154.467,6.949 0,0 1.14,7.443 1.14,7.443 73.03,-9.874 148.042,-10.124 219.966,6.807 66.787,15.309 129.717,46.738 181.339,91.902 C -27.515,-30.287 -12.809,-15.886 0,0"
             style="fill:#ff6abc;fill-opacity:1;fill-rule:nonzero;stroke:none"
             id="path204" />
        </g>
        <g
           id="g206"
           transform="translate(326.4204,962.7075)">
          <path
             d="m 0,0 c -0.575,0 -1.146,0.001 -1.722,0.002 -68.019,0.191 -119.554,11.806 -120.067,11.923 l 2.028,8.867 c 0.505,-0.115 51.227,-11.53 118.279,-11.694 0.47,-0.001 0.948,-0.002 1.421,-0.002 61.564,0 149.22,9.8 220.124,56.009 l 4.966,-7.62 C 192.576,36.335 154.112,20.786 110.707,11.271 76.589,3.791 39.348,0 0,0"
             style="fill:#ff6abc;fill-opacity:1;fill-rule:nonzero;stroke:none"
             id="path208" />
        </g>
        <g
           id="g210"
           transform="translate(526.9753,880.2581)">
          <path
             d="m 0,0 c 35.071,4.081 111.18,0.491 129.46,-34.854 3.197,-6.383 4.143,-13.816 2.285,-20.295 -1.759,6.172 -4.253,11.774 -8.188,16.62 C 100.101,-9.278 35.97,-3.653 0,0"
             style="fill:#ff6abc;fill-opacity:1;fill-rule:nonzero;stroke:none"
             id="path212" />
        </g>
        <g
           id="g214"
           transform="translate(543.6887,809.5347)">
          <path
             d="m 0,0 c 17.803,-22.415 39.631,-51.516 70.409,-53.108 4.302,-0.126 8.685,0.373 13.336,1.023 -3.726,-2.789 -8.083,-4.866 -12.796,-6.046 C 37.513,-65.34 8.895,-28.319 0,0"
             style="fill:#ff6abc;fill-opacity:1;fill-rule:nonzero;stroke:none"
             id="path216" />
        </g>
        <g
           id="g218"
           transform="translate(619.7737,792.6836)">
          <path
             d="m 0,0 c -3.853,-6.869 -7.961,-13.609 -12.5,-20.165 -4.353,-5.903 -8.561,-12.412 -15.241,-16.195 -1.648,-0.811 -3.515,-1.22 -5.376,-0.968 0,0 1.778,8.92 1.778,8.92 -0.508,-0.025 -0.137,-0.17 0.354,-0.065 0.558,0.154 1.244,0.4 1.965,0.79 4.799,2.625 8.98,6.611 13.052,10.46 C -10.402,-11.801 -5.09,-5.996 0,0"
             style="fill:#ff6abc;fill-opacity:1;fill-rule:nonzero;stroke:none"
             id="path220" />
        </g>
        <g
           id="g222"
           transform="translate(91.5649,791.3394)">
          <path
             d="m 0,0 -4.688,7.795 c 21.375,12.857 76.029,28.968 166.577,55.661 56.067,16.528 125.844,37.098 209.214,63.249 225.998,70.891 248.71,140.706 253.163,211.944 l 9.078,-0.567 C 631.127,302.61 623.421,261.071 583.078,221.931 543.31,183.35 476.819,150.333 373.826,118.026 290.38,91.851 220.562,71.269 164.461,54.731 74.61,28.244 20.376,12.256 0,0"
             style="fill:#ff6abc;fill-opacity:1;fill-rule:nonzero;stroke:none"
             id="path224" />
        </g>
        <g
           id="g226"
           transform="translate(699.4333,698.7261)">
          <path
             d="m 0,0 c -27.916,12.598 -30.784,41.924 -21.138,67.979 1.501,4.135 3.271,8.19 5.321,12.091 10.057,18.898 22.894,36.469 32.823,55.023 16.293,29.368 24.352,62.782 22.719,96.276 C 37.831,299.4 -9.064,313.734 14.298,378.383 6.762,350.519 9.654,330.317 24.058,305.529 37.473,282.314 48.317,259.24 48.904,231.768 50.272,196.731 41.587,161.563 24.044,131.216 15.662,116.176 5.519,102.236 -3.758,87.883 -8.256,80.809 -12.647,73.705 -15.786,65.919 -25.988,41.378 -24.908,14.897 0,0"
             style="fill:#ff6abc;fill-opacity:1;fill-rule:nonzero;stroke:none"
             id="path228" />
        </g>
        <g
           id="g230"
           transform="translate(676.1517,1021.2332)">
          <path
             d="m 0,0 c 38.225,-42.905 52.138,-104.111 43.036,-160.253 -5.605,-32.177 -18.699,-62.664 -34.874,-90.808 -12.166,-20.499 -14.016,-44.894 -11.004,-68.241 1.731,-15.157 5.021,-30.484 6.395,-45.891 0.41,-5.667 1.099,-11.518 -1.002,-17.084 -10.003,-24.934 -49.822,-15.439 -67.917,-5.739 -6.837,3.717 -13.8,8.19 -17.938,14.956 7.28,-7.227 17.171,-10.627 26.77,-13.449 13.586,-3.476 29.404,-5.867 42.734,-0.774 8.106,3.485 9.976,9.556 9.264,17.668 -1.817,26.989 -10.132,53.477 -7.657,80.919 1.115,14.617 5.512,29.179 12.852,41.95 11.995,20.815 21.954,42.881 28.527,66.005 5.761,21.924 10.03,44.381 9.634,67.149 C 38.253,-73.168 25.307,-31.907 0,0"
             style="fill:#ff6abc;fill-opacity:1;fill-rule:nonzero;stroke:none"
             id="path232" />
        </g>
        <g
           id="g234"
           transform="translate(291.4333,643.0665)">
          <path
             d="m 0,0 c 42.322,-62.244 112.051,-149.529 184.905,-173.828 16.299,-5.145 43.602,-9.719 57.238,2.224 8.87,8.304 9.858,21.444 12.707,32.907 2.872,13.281 8.573,26.483 22.595,31.433 5.536,2.307 11.722,1.412 17.294,2.05 0,0 0.819,-7.811 0.819,-7.811 -12.145,-0.809 -22.736,-3.957 -27.429,-16.254 -4.681,-12.066 -4.721,-25.643 -10.177,-37.812 -8.636,-20.441 -29.79,-24.053 -49.663,-22.388 C 121.949,-181.463 40.468,-70.158 0,0"
             style="fill:#ff6abc;fill-opacity:1;fill-rule:nonzero;stroke:none"
             id="path236" />
        </g>
        <g
           id="g238"
           transform="translate(554.3806,579.9735)">
          <path
             d="M 0,0 C 15.86,2.253 32.127,-0.593 47.634,-0.032 56.756,0.412 62.338,-0.825 67.602,8.837 73.316,3.936 73.086,-5.171 68.935,-11.167 64.991,-17.295 57.456,-21.154 50.989,-22.491 32.644,-26.013 11.927,-20.345 -2.543,-8.733 -2.543,-8.733 0,0 0,0"
             style="fill:#ff6abc;fill-opacity:1;fill-rule:nonzero;stroke:none"
             id="path240" />
        </g>
        <g
           id="g242"
           transform="translate(461.458,827.4155)">
          <path
             d="M 0,0 C -0.021,-0.043 -0.044,-0.087 -0.065,-0.13 -0.037,-0.077 -0.016,-0.033 0,0 m -34.502,-13.052 c -22.966,0 -55.067,6.108 -91.51,13.043 -32.048,6.097 -65.187,12.403 -94.128,14.638 l 0.701,9.069 c 29.443,-2.274 62.835,-8.627 95.127,-14.772 29.319,-5.578 57.012,-10.848 78.507,-12.392 21.717,-1.56 34.39,0.975 37.67,7.534 0.313,0.627 1.267,2.535 97.477,115.793 l 6.932,-5.889 C 59.28,70.422 3.559,4.625 -0.158,-0.309 -5.009,-9.565 -17.147,-13.052 -34.502,-13.052"
             style="fill:#ff6abc;fill-opacity:1;fill-rule:nonzero;stroke:none"
             id="path244" />
        </g>
        <g
           id="g246"
           transform="translate(242.3076,842.1217)">
          <path
             d="m 0,0 c -2.633,-16.906 0.152,-34.665 7.452,-50.139 7.506,-16.005 20.451,-29.086 35.546,-38.306 -20.336,9.998 -37.389,27.197 -45.601,48.586 -5.045,13.061 -7.515,27.274 -6.38,41.29 C -8.983,1.431 0,0 0,0"
             style="fill:#ff6abc;fill-opacity:1;fill-rule:nonzero;stroke:none"
             id="path248" />
        </g>
        <g
           id="g250"
           transform="translate(541.4368,582.8581)">
          <path
             d="m 0,0 c 5.67,-0.526 11.17,-2.269 16.519,-4.126 10.574,-3.852 20.661,-8.805 30.111,-14.85 4.571,-3.034 9.015,-6.288 12.95,-10.113 5.515,-5.394 5.613,-14.237 0.219,-19.753 -5.259,-5.376 -13.795,-5.604 -19.33,-0.616 -7.697,7.207 -13.815,15.766 -20.239,24.15 C 13.642,-16.711 7.367,-8.165 0,0"
             style="fill:#ff6abc;fill-opacity:1;fill-rule:nonzero;stroke:none"
             id="path252" />
        </g>
      </g>
    </g>
    <g
       id="g254">
      <g
         id="g256"
         clip-path="url(#clipPath260)">
        <g
           id="g262"
           transform="translate(598.3315,1130.2085)">
          <path
             d="m 0,0 c -287.1,0 -520.672,-233.572 -520.672,-520.672 0,-287.099 233.572,-520.672 520.672,-520.672 287.1,0 520.672,233.573 520.672,520.672 C 520.672,-233.572 287.1,0 0,0 m 0,-1056.344 c -72.312,0 -142.465,14.164 -208.51,42.098 -63.788,26.981 -121.075,65.603 -170.267,114.797 -49.193,49.192 -87.816,106.478 -114.796,170.267 -27.935,66.045 -42.099,136.198 -42.099,208.51 0,72.312 14.164,142.465 42.099,208.51 26.98,63.788 65.603,121.075 114.796,170.267 49.192,49.193 106.479,87.816 170.267,114.796 C -142.465,0.836 -72.312,15 0,15 72.312,15 142.465,0.836 208.51,-27.099 c 63.788,-26.98 121.074,-65.603 170.267,-114.796 49.193,-49.192 87.816,-106.479 114.796,-170.267 27.935,-66.045 42.099,-136.198 42.099,-208.51 0,-72.312 -14.164,-142.465 -42.099,-208.51 C 466.593,-792.971 427.97,-850.257 378.777,-899.449 329.584,-948.643 272.298,-987.265 208.51,-1014.246 142.465,-1042.18 72.312,-1056.344 0,-1056.344"
             style="fill:#fbc6cc;fill-opacity:1;fill-rule:nonzero;stroke:none"
             id="path264" />
        </g>
      </g>
    </g>
  </g>
</svg>
